%TF.GenerationSoftware,KiCad,Pcbnew,(6.0.9)*%
%TF.CreationDate,2022-11-20T19:55:09+01:00*%
%TF.ProjectId,ZLight_V2,5a4c6967-6874-45f5-9632-2e6b69636164,rev?*%
%TF.SameCoordinates,Original*%
%TF.FileFunction,Copper,L2,Bot*%
%TF.FilePolarity,Positive*%
%FSLAX46Y46*%
G04 Gerber Fmt 4.6, Leading zero omitted, Abs format (unit mm)*
G04 Created by KiCad (PCBNEW (6.0.9)) date 2022-11-20 19:55:09*
%MOMM*%
%LPD*%
G01*
G04 APERTURE LIST*
G04 Aperture macros list*
%AMRotRect*
0 Rectangle, with rotation*
0 The origin of the aperture is its center*
0 $1 length*
0 $2 width*
0 $3 Rotation angle, in degrees counterclockwise*
0 Add horizontal line*
21,1,$1,$2,0,0,$3*%
G04 Aperture macros list end*
%TA.AperFunction,ComponentPad*%
%ADD10C,1.524000*%
%TD*%
%TA.AperFunction,SMDPad,CuDef*%
%ADD11RotRect,1.100000X1.700000X160.000000*%
%TD*%
%TA.AperFunction,SMDPad,CuDef*%
%ADD12RotRect,2.500000X1.700000X160.000000*%
%TD*%
%TA.AperFunction,SMDPad,CuDef*%
%ADD13RotRect,1.100000X1.700000X300.000000*%
%TD*%
%TA.AperFunction,SMDPad,CuDef*%
%ADD14RotRect,2.500000X1.700000X300.000000*%
%TD*%
%TA.AperFunction,SMDPad,CuDef*%
%ADD15RotRect,1.100000X1.700000X20.000000*%
%TD*%
%TA.AperFunction,SMDPad,CuDef*%
%ADD16RotRect,2.500000X1.700000X20.000000*%
%TD*%
%TA.AperFunction,SMDPad,CuDef*%
%ADD17RotRect,1.100000X1.700000X60.000000*%
%TD*%
%TA.AperFunction,SMDPad,CuDef*%
%ADD18RotRect,2.500000X1.700000X60.000000*%
%TD*%
%TA.AperFunction,SMDPad,CuDef*%
%ADD19RotRect,1.100000X1.700000X260.000000*%
%TD*%
%TA.AperFunction,SMDPad,CuDef*%
%ADD20RotRect,2.500000X1.700000X260.000000*%
%TD*%
%TA.AperFunction,SMDPad,CuDef*%
%ADD21RotRect,1.100000X1.700000X40.000000*%
%TD*%
%TA.AperFunction,SMDPad,CuDef*%
%ADD22RotRect,2.500000X1.700000X40.000000*%
%TD*%
%TA.AperFunction,SMDPad,CuDef*%
%ADD23RotRect,1.100000X1.700000X140.000000*%
%TD*%
%TA.AperFunction,SMDPad,CuDef*%
%ADD24RotRect,2.500000X1.700000X140.000000*%
%TD*%
%TA.AperFunction,SMDPad,CuDef*%
%ADD25R,1.100000X1.700000*%
%TD*%
%TA.AperFunction,SMDPad,CuDef*%
%ADD26R,2.500000X1.700000*%
%TD*%
%TA.AperFunction,SMDPad,CuDef*%
%ADD27RotRect,1.100000X1.700000X280.000000*%
%TD*%
%TA.AperFunction,SMDPad,CuDef*%
%ADD28RotRect,2.500000X1.700000X280.000000*%
%TD*%
%TA.AperFunction,ViaPad*%
%ADD29C,0.800000*%
%TD*%
%TA.AperFunction,Conductor*%
%ADD30C,1.000000*%
%TD*%
%TA.AperFunction,Conductor*%
%ADD31C,0.250000*%
%TD*%
%TA.AperFunction,Conductor*%
%ADD32C,0.750000*%
%TD*%
G04 APERTURE END LIST*
D10*
%TO.P,J1,1,1*%
%TO.N,GND*%
X107249000Y-100000000D03*
%TO.P,J1,2,2*%
%TO.N,+12V*%
X107249000Y-97460000D03*
%TD*%
%TO.P,DEBUG1,1,1*%
%TO.N,GND*%
X147050000Y-77600000D03*
%TO.P,DEBUG1,2,2*%
%TO.N,/TMSC*%
X149590000Y-77600000D03*
%TO.P,DEBUG1,3,3*%
%TO.N,/TCKC*%
X152090000Y-77600000D03*
%TO.P,DEBUG1,4,4*%
%TO.N,/RESET*%
X154670000Y-77600000D03*
%TO.P,DEBUG1,5,5*%
%TO.N,+3V3*%
X157210000Y-77600000D03*
%TD*%
%TO.P,J2,1,1*%
%TO.N,GND*%
X192800000Y-97500000D03*
%TO.P,J2,2,2*%
%TO.N,+12V*%
X192800000Y-100040000D03*
%TD*%
%TO.P,U4,1,VCC*%
%TO.N,+3V3*%
X178500000Y-57400000D03*
%TO.P,U4,2,OUT*%
%TO.N,/PIR*%
X181040000Y-57400000D03*
%TO.P,U4,3,GND*%
%TO.N,GND*%
X183540000Y-57400000D03*
%TD*%
D11*
%TO.P,D12,1,K*%
%TO.N,Net-(D12-Pad1)*%
X137678124Y-142974757D03*
%TO.P,D12,2,A*%
%TO.N,Net-(D12-Pad2)*%
X132321876Y-141025243D03*
D12*
X134671108Y-141880293D03*
%TD*%
D13*
%TO.P,D8,1,K*%
%TO.N,Net-(D13-Pad2)*%
X109575000Y-120531828D03*
%TO.P,D8,2,A*%
%TO.N,Net-(D3-Pad2)*%
X112425000Y-125468172D03*
D14*
X111175000Y-123303109D03*
%TD*%
D15*
%TO.P,D9,1,K*%
%TO.N,Net-(D14-Pad2)*%
X132321876Y-58974757D03*
%TO.P,D9,2,A*%
%TO.N,Net-(D3-Pad2)*%
X137678124Y-57025243D03*
D16*
X135328892Y-57880293D03*
%TD*%
D17*
%TO.P,D19,1,K*%
%TO.N,Net-(D15-Pad1)*%
X109575000Y-80468172D03*
%TO.P,D19,2,A*%
%TO.N,Net-(D14-Pad1)*%
X112425000Y-75531828D03*
D18*
X111175000Y-77696891D03*
%TD*%
D19*
%TO.P,D5,1,K*%
%TO.N,Net-(D10-Pad2)*%
X194494897Y-105193298D03*
D20*
%TO.P,D5,2,A*%
%TO.N,Net-(D3-Pad2)*%
X193939223Y-108344683D03*
D19*
X193505103Y-110806702D03*
%TD*%
D11*
%TO.P,D11,1,K*%
%TO.N,Net-(D11-Pad1)*%
X167678124Y-58974757D03*
%TO.P,D11,2,A*%
%TO.N,Net-(D11-Pad2)*%
X162321876Y-57025243D03*
D12*
X164671108Y-57880293D03*
%TD*%
D13*
%TO.P,D15,1,K*%
%TO.N,Net-(D15-Pad1)*%
X187575000Y-74531828D03*
D14*
%TO.P,D15,2,A*%
%TO.N,Net-(D10-Pad1)*%
X189175000Y-77303109D03*
D13*
X190425000Y-79468172D03*
%TD*%
D21*
%TO.P,D14,1,K*%
%TO.N,Net-(D14-Pad1)*%
X118816773Y-67831945D03*
%TO.P,D14,2,A*%
%TO.N,Net-(D14-Pad2)*%
X123183227Y-64168055D03*
D22*
X121268116Y-65775024D03*
%TD*%
D23*
%TO.P,D16,1,K*%
%TO.N,Net-(D15-Pad1)*%
X181183227Y-67831945D03*
%TO.P,D16,2,A*%
%TO.N,Net-(D11-Pad1)*%
X176816773Y-64168055D03*
D24*
X178731884Y-65775024D03*
%TD*%
D25*
%TO.P,D17,1,K*%
%TO.N,Net-(D15-Pad1)*%
X151600000Y-145000000D03*
%TO.P,D17,2,A*%
%TO.N,Net-(D12-Pad1)*%
X145900000Y-145000000D03*
D26*
X148400000Y-145000000D03*
%TD*%
D27*
%TO.P,D10,1,K*%
%TO.N,Net-(D10-Pad1)*%
X193505103Y-89193298D03*
%TO.P,D10,2,A*%
%TO.N,Net-(D10-Pad2)*%
X194494897Y-94806702D03*
D28*
X194060777Y-92344683D03*
%TD*%
D17*
%TO.P,D3,1,K*%
%TO.N,Net-(D3-Pad1)*%
X187575000Y-124468172D03*
%TO.P,D3,2,A*%
%TO.N,Net-(D3-Pad2)*%
X190425000Y-119531828D03*
D18*
X189175000Y-121696891D03*
%TD*%
D23*
%TO.P,D7,1,K*%
%TO.N,Net-(D12-Pad2)*%
X123183227Y-135831945D03*
D24*
%TO.P,D7,2,A*%
%TO.N,Net-(D3-Pad2)*%
X120731884Y-133775024D03*
D23*
X118816773Y-132168055D03*
%TD*%
D15*
%TO.P,D2,1,K*%
%TO.N,Net-(D15-Pad1)*%
X162321876Y-142974757D03*
%TO.P,D2,2,A*%
%TO.N,Net-(D2-Pad2)*%
X167678124Y-141025243D03*
D16*
X165328892Y-141880293D03*
%TD*%
D19*
%TO.P,D18,1,K*%
%TO.N,Net-(D15-Pad1)*%
X106494897Y-89193298D03*
D20*
%TO.P,D18,2,A*%
%TO.N,Net-(D13-Pad1)*%
X105939223Y-92344683D03*
D19*
X105505103Y-94806702D03*
%TD*%
D27*
%TO.P,D13,1,K*%
%TO.N,Net-(D13-Pad1)*%
X105505103Y-105193298D03*
D28*
%TO.P,D13,2,A*%
%TO.N,Net-(D13-Pad2)*%
X106060777Y-108344683D03*
D27*
X106494897Y-110806702D03*
%TD*%
D25*
%TO.P,D6,1,K*%
%TO.N,Net-(D11-Pad2)*%
X152850000Y-55000000D03*
D26*
%TO.P,D6,2,A*%
%TO.N,Net-(D3-Pad2)*%
X149650000Y-55000000D03*
D25*
X147150000Y-55000000D03*
%TD*%
D21*
%TO.P,D4,1,K*%
%TO.N,Net-(D2-Pad2)*%
X176816773Y-135831945D03*
D22*
%TO.P,D4,2,A*%
%TO.N,Net-(D3-Pad1)*%
X179268116Y-133775024D03*
D21*
X181183227Y-132168055D03*
%TD*%
D29*
%TO.N,GND*%
X138000000Y-100100000D03*
X164300000Y-101300000D03*
X181000000Y-71900000D03*
X152600000Y-73100000D03*
X164700000Y-64900000D03*
X130400000Y-100100000D03*
X170800000Y-71800000D03*
X135300000Y-81400000D03*
%TO.N,+3V3*%
X178500000Y-77700000D03*
X130300000Y-81000000D03*
X132500000Y-75000000D03*
%TO.N,Net-(D15-Pad1)*%
X151600000Y-139500000D03*
%TO.N,Net-(D3-Pad2)*%
X184100000Y-117500000D03*
X149100000Y-121600000D03*
X142000000Y-130700000D03*
%TO.N,/RESET*%
X162300000Y-63700000D03*
%TO.N,/BTN_LEFT*%
X138500000Y-62400000D03*
X130700000Y-69200000D03*
%TO.N,/BTN_RIGHT*%
X135500000Y-61100000D03*
X137900000Y-61100000D03*
%TO.N,/DIM*%
X142300000Y-89600000D03*
X146700000Y-124500000D03*
%TO.N,/LED_GREEN*%
X138400000Y-52300000D03*
X133200000Y-52600000D03*
%TD*%
D30*
%TO.N,GND*%
X168100000Y-97500000D02*
X192800000Y-97500000D01*
D31*
X181000000Y-71900000D02*
X170900000Y-71900000D01*
X160400000Y-61800000D02*
X164800000Y-61800000D01*
X164800000Y-64800000D02*
X164700000Y-64900000D01*
D30*
X130400000Y-100100000D02*
X135300000Y-100100000D01*
D31*
X152600000Y-73100000D02*
X152600000Y-69600000D01*
D30*
X135300000Y-100100000D02*
X138000000Y-100100000D01*
D31*
X170900000Y-71900000D02*
X170800000Y-71800000D01*
X152600000Y-69600000D02*
X160400000Y-61800000D01*
X152600000Y-73100000D02*
X151550000Y-73100000D01*
D30*
X135300000Y-100100000D02*
X135300000Y-81400000D01*
D31*
X151550000Y-73100000D02*
X147050000Y-77600000D01*
X164800000Y-61800000D02*
X164800000Y-64800000D01*
D30*
X168100000Y-97500000D02*
X164300000Y-101300000D01*
D31*
%TO.N,+3V3*%
X178500000Y-77700000D02*
X178400000Y-77600000D01*
X130300000Y-77200000D02*
X130300000Y-81000000D01*
X178400000Y-77600000D02*
X157210000Y-77600000D01*
X132500000Y-75000000D02*
X130300000Y-77200000D01*
%TO.N,Net-(D15-Pad1)*%
X162321876Y-142974757D02*
X160296633Y-145000000D01*
D32*
X187575000Y-74531828D02*
X151500000Y-110606828D01*
X151600000Y-134298401D02*
X151600000Y-139500000D01*
X106494897Y-89193298D02*
X109575000Y-86113195D01*
D31*
X160296633Y-145000000D02*
X151600000Y-145000000D01*
D32*
X151500000Y-110606828D02*
X151500000Y-134000000D01*
X151600000Y-139500000D02*
X151600000Y-145000000D01*
X109575000Y-86113195D02*
X109575000Y-80468172D01*
X106494897Y-89193298D02*
X151600000Y-134298401D01*
X181183227Y-67831945D02*
X187575000Y-74223718D01*
D31*
%TO.N,Net-(D2-Pad2)*%
X172871422Y-135831945D02*
X167678124Y-141025243D01*
X166823074Y-141880293D02*
X165328892Y-141880293D01*
X176816773Y-135831945D02*
X172871422Y-135831945D01*
X167678124Y-141025243D02*
X166823074Y-141880293D01*
%TO.N,Net-(D3-Pad1)*%
X187575000Y-124468172D02*
X187575000Y-125776282D01*
X181183227Y-132168055D02*
X179576258Y-133775024D01*
X187575000Y-125776282D02*
X181183227Y-132168055D01*
D32*
%TO.N,Net-(D3-Pad2)*%
X184100000Y-117500000D02*
X184978109Y-117500000D01*
X137678124Y-57025243D02*
X144825243Y-57025243D01*
D31*
X144900000Y-57100000D02*
X145050000Y-57100000D01*
X123700000Y-130806908D02*
X123700000Y-130800000D01*
D32*
X120731884Y-133775024D02*
X123700000Y-130806908D01*
D31*
X112425000Y-124553109D02*
X111175000Y-123303109D01*
D32*
X118816773Y-132168055D02*
X112425000Y-125776282D01*
X144487821Y-116987821D02*
X149100000Y-121600000D01*
D31*
X120731884Y-133775024D02*
X119124915Y-132168055D01*
X135328892Y-57880293D02*
X136823074Y-57880293D01*
X190425000Y-119531828D02*
X190425000Y-120446891D01*
X145050000Y-57100000D02*
X147150000Y-55000000D01*
X144825243Y-57025243D02*
X144900000Y-57100000D01*
X190425000Y-113886805D02*
X190425000Y-119531828D01*
D32*
X147150000Y-55000000D02*
X144487821Y-57662179D01*
D31*
X190425000Y-120446891D02*
X189175000Y-121696891D01*
X193505103Y-110806702D02*
X190425000Y-113886805D01*
X112425000Y-125468172D02*
X112425000Y-124553109D01*
X193939223Y-108344683D02*
X193939223Y-110372582D01*
X147150000Y-55000000D02*
X149650000Y-55000000D01*
D32*
X144487821Y-57662179D02*
X144487821Y-116987821D01*
D31*
X136823074Y-57880293D02*
X137678124Y-57025243D01*
X123700000Y-130800000D02*
X123800000Y-130700000D01*
X193939223Y-110372582D02*
X193505103Y-110806702D01*
D32*
X123800000Y-130700000D02*
X142000000Y-130700000D01*
X184978109Y-117500000D02*
X189175000Y-121696891D01*
D31*
%TO.N,Net-(D10-Pad2)*%
X195800000Y-96111805D02*
X195800000Y-103888195D01*
X194060777Y-94372582D02*
X194494897Y-94806702D01*
X194060777Y-92344683D02*
X194060777Y-94372582D01*
X194494897Y-94806702D02*
X195800000Y-96111805D01*
X195800000Y-103888195D02*
X194494897Y-105193298D01*
%TO.N,Net-(D11-Pad2)*%
X163176926Y-57880293D02*
X162321876Y-57025243D01*
X152850000Y-55000000D02*
X160296633Y-55000000D01*
X164671108Y-57880293D02*
X163176926Y-57880293D01*
X160296633Y-55000000D02*
X162321876Y-57025243D01*
%TO.N,Net-(D12-Pad2)*%
X134671108Y-141880293D02*
X133176926Y-141880293D01*
X127128578Y-135831945D02*
X123183227Y-135831945D01*
X132321876Y-141025243D02*
X127128578Y-135831945D01*
X133176926Y-141880293D02*
X132321876Y-141025243D01*
%TO.N,Net-(D13-Pad2)*%
X106494897Y-110806702D02*
X106494897Y-108778803D01*
X109575000Y-113886805D02*
X106494897Y-110806702D01*
X109575000Y-120531828D02*
X109575000Y-113886805D01*
%TO.N,Net-(D14-Pad2)*%
X127128578Y-64168055D02*
X132321876Y-58974757D01*
X121268116Y-65775024D02*
X122875085Y-64168055D01*
X123183227Y-64168055D02*
X127128578Y-64168055D01*
%TO.N,Net-(D10-Pad1)*%
X190425000Y-79468172D02*
X190425000Y-86113195D01*
X190425000Y-78553109D02*
X190425000Y-79468172D01*
X189175000Y-77303109D02*
X190425000Y-78553109D01*
X190425000Y-86113195D02*
X193505103Y-89193298D01*
%TO.N,Net-(D11-Pad1)*%
X172871422Y-64168055D02*
X176816773Y-64168055D01*
X176816773Y-64168055D02*
X178423742Y-65775024D01*
X167678124Y-58974757D02*
X172871422Y-64168055D01*
%TO.N,Net-(D12-Pad1)*%
X148400000Y-145000000D02*
X145900000Y-145000000D01*
X139703367Y-145000000D02*
X137678124Y-142974757D01*
X145900000Y-145000000D02*
X139703367Y-145000000D01*
%TO.N,Net-(D13-Pad1)*%
X105505103Y-105193298D02*
X105505103Y-94806702D01*
X105505103Y-94806702D02*
X105505103Y-92778803D01*
%TO.N,Net-(D14-Pad1)*%
X112425000Y-75531828D02*
X112425000Y-74223718D01*
X111175000Y-77696891D02*
X112425000Y-76446891D01*
X112425000Y-76446891D02*
X112425000Y-75531828D01*
X112425000Y-74223718D02*
X118816773Y-67831945D01*
%TO.N,/RESET*%
X162300000Y-63700000D02*
X159600000Y-66400000D01*
X159600000Y-70300000D02*
X154670000Y-75230000D01*
X154670000Y-75230000D02*
X154670000Y-77600000D01*
X159600000Y-66400000D02*
X159600000Y-70300000D01*
%TO.N,/BTN_LEFT*%
X134300000Y-62400000D02*
X130700000Y-66000000D01*
X130700000Y-66000000D02*
X130700000Y-69200000D01*
X138500000Y-62400000D02*
X134300000Y-62400000D01*
%TO.N,/BTN_RIGHT*%
X137900000Y-61100000D02*
X135500000Y-61100000D01*
%TO.N,/DIM*%
X146700000Y-124500000D02*
X142300000Y-120100000D01*
X142300000Y-120100000D02*
X142300000Y-89600000D01*
%TO.N,/LED_GREEN*%
X138400000Y-52300000D02*
X133500000Y-52300000D01*
X133500000Y-52300000D02*
X133200000Y-52600000D01*
%TD*%
M02*
