M48
; DRILL file {KiCad (6.0.9)} date Sun Nov 20 19:55:16 2022
; FORMAT={-:-/ absolute / inch / decimal}
; #@! TF.CreationDate,2022-11-20T19:55:16+01:00
; #@! TF.GenerationSoftware,Kicad,Pcbnew,(6.0.9)
; #@! TF.FileFunction,Plated,1,2,PTH
FMAT,2
INCH
; #@! TA.AperFunction,Plated,PTH,ViaDrill
T1C0.0157
; #@! TA.AperFunction,Plated,PTH,ComponentDrill
T2C0.0315
%
G90
G05
T1
X5.1299Y-3.189
X5.1339Y-3.9409
X5.1457Y-2.7244
X5.2165Y-2.9528
X5.2441Y-2.0709
X5.3268Y-3.2047
X5.3346Y-2.4055
X5.4291Y-2.4055
X5.4331Y-3.9409
X5.4488Y-2.0591
X5.4528Y-2.4567
X5.5906Y-5.1457
X5.6024Y-3.5276
X5.7756Y-4.9016
X5.8701Y-4.7874
X5.9685Y-5.4921
X6.0079Y-2.878
X6.3898Y-2.5079
X6.4685Y-3.9882
X6.4843Y-2.5551
X6.7244Y-2.8268
X7.0276Y-3.0591
X7.126Y-2.8307
X7.248Y-4.626
T2
X4.2224Y-3.837
X4.2224Y-3.937
X5.7894Y-3.0551
X5.8894Y-3.0551
X5.9878Y-3.0551
X6.0894Y-3.0551
X6.1894Y-3.0551
X7.0276Y-2.2598
X7.1276Y-2.2598
X7.226Y-2.2598
X7.5906Y-3.8386
X7.5906Y-3.9386
T0
M30
