%TF.GenerationSoftware,KiCad,Pcbnew,(6.0.9)*%
%TF.CreationDate,2022-11-20T19:55:09+01:00*%
%TF.ProjectId,ZLight_V2,5a4c6967-6874-45f5-9632-2e6b69636164,rev?*%
%TF.SameCoordinates,Original*%
%TF.FileFunction,Legend,Top*%
%TF.FilePolarity,Positive*%
%FSLAX46Y46*%
G04 Gerber Fmt 4.6, Leading zero omitted, Abs format (unit mm)*
G04 Created by KiCad (PCBNEW (6.0.9)) date 2022-11-20 19:55:09*
%MOMM*%
%LPD*%
G01*
G04 APERTURE LIST*
%ADD10C,0.150000*%
%ADD11C,0.300000*%
%ADD12C,0.120000*%
G04 APERTURE END LIST*
D10*
X164123809Y-123661666D02*
X164600000Y-123661666D01*
X164028571Y-123947380D02*
X164361904Y-122947380D01*
X164695238Y-123947380D01*
X165457142Y-123899761D02*
X165361904Y-123947380D01*
X165171428Y-123947380D01*
X165076190Y-123899761D01*
X165028571Y-123852142D01*
X164980952Y-123756904D01*
X164980952Y-123471190D01*
X165028571Y-123375952D01*
X165076190Y-123328333D01*
X165171428Y-123280714D01*
X165361904Y-123280714D01*
X165457142Y-123328333D01*
X165885714Y-123947380D02*
X165885714Y-122947380D01*
X166314285Y-123947380D02*
X166314285Y-123423571D01*
X166266666Y-123328333D01*
X166171428Y-123280714D01*
X166028571Y-123280714D01*
X165933333Y-123328333D01*
X165885714Y-123375952D01*
X167219047Y-123947380D02*
X167219047Y-122947380D01*
X167219047Y-123899761D02*
X167123809Y-123947380D01*
X166933333Y-123947380D01*
X166838095Y-123899761D01*
X166790476Y-123852142D01*
X166742857Y-123756904D01*
X166742857Y-123471190D01*
X166790476Y-123375952D01*
X166838095Y-123328333D01*
X166933333Y-123280714D01*
X167123809Y-123280714D01*
X167219047Y-123328333D01*
X167695238Y-123280714D02*
X167695238Y-124137857D01*
X167647619Y-124233095D01*
X167552380Y-124280714D01*
X167504761Y-124280714D01*
X167695238Y-122947380D02*
X167647619Y-122995000D01*
X167695238Y-123042619D01*
X167742857Y-122995000D01*
X167695238Y-122947380D01*
X167695238Y-123042619D01*
X168171428Y-123947380D02*
X168171428Y-123280714D01*
X168171428Y-122947380D02*
X168123809Y-122995000D01*
X168171428Y-123042619D01*
X168219047Y-122995000D01*
X168171428Y-122947380D01*
X168171428Y-123042619D01*
X169076190Y-123947380D02*
X169076190Y-123423571D01*
X169028571Y-123328333D01*
X168933333Y-123280714D01*
X168742857Y-123280714D01*
X168647619Y-123328333D01*
X169076190Y-123899761D02*
X168980952Y-123947380D01*
X168742857Y-123947380D01*
X168647619Y-123899761D01*
X168600000Y-123804523D01*
X168600000Y-123709285D01*
X168647619Y-123614047D01*
X168742857Y-123566428D01*
X168980952Y-123566428D01*
X169076190Y-123518809D01*
X169552380Y-123280714D02*
X169552380Y-123947380D01*
X169552380Y-123375952D02*
X169600000Y-123328333D01*
X169695238Y-123280714D01*
X169838095Y-123280714D01*
X169933333Y-123328333D01*
X169980952Y-123423571D01*
X169980952Y-123947380D01*
X171219047Y-123423571D02*
X171552380Y-123423571D01*
X171695238Y-123947380D02*
X171219047Y-123947380D01*
X171219047Y-122947380D01*
X171695238Y-122947380D01*
X172266666Y-123947380D02*
X172171428Y-123899761D01*
X172123809Y-123804523D01*
X172123809Y-122947380D01*
X173028571Y-123899761D02*
X172933333Y-123947380D01*
X172742857Y-123947380D01*
X172647619Y-123899761D01*
X172600000Y-123804523D01*
X172600000Y-123423571D01*
X172647619Y-123328333D01*
X172742857Y-123280714D01*
X172933333Y-123280714D01*
X173028571Y-123328333D01*
X173076190Y-123423571D01*
X173076190Y-123518809D01*
X172600000Y-123614047D01*
X173933333Y-123899761D02*
X173838095Y-123947380D01*
X173647619Y-123947380D01*
X173552380Y-123899761D01*
X173504761Y-123852142D01*
X173457142Y-123756904D01*
X173457142Y-123471190D01*
X173504761Y-123375952D01*
X173552380Y-123328333D01*
X173647619Y-123280714D01*
X173838095Y-123280714D01*
X173933333Y-123328333D01*
X174219047Y-123280714D02*
X174600000Y-123280714D01*
X174361904Y-122947380D02*
X174361904Y-123804523D01*
X174409523Y-123899761D01*
X174504761Y-123947380D01*
X174600000Y-123947380D01*
X174933333Y-123947380D02*
X174933333Y-123280714D01*
X174933333Y-123471190D02*
X174980952Y-123375952D01*
X175028571Y-123328333D01*
X175123809Y-123280714D01*
X175219047Y-123280714D01*
X175695238Y-123947380D02*
X175600000Y-123899761D01*
X175552380Y-123852142D01*
X175504761Y-123756904D01*
X175504761Y-123471190D01*
X175552380Y-123375952D01*
X175600000Y-123328333D01*
X175695238Y-123280714D01*
X175838095Y-123280714D01*
X175933333Y-123328333D01*
X175980952Y-123375952D01*
X176028571Y-123471190D01*
X176028571Y-123756904D01*
X175980952Y-123852142D01*
X175933333Y-123899761D01*
X175838095Y-123947380D01*
X175695238Y-123947380D01*
X176457142Y-123280714D02*
X176457142Y-123947380D01*
X176457142Y-123375952D02*
X176504761Y-123328333D01*
X176600000Y-123280714D01*
X176742857Y-123280714D01*
X176838095Y-123328333D01*
X176885714Y-123423571D01*
X176885714Y-123947380D01*
X177361904Y-123947380D02*
X177361904Y-123280714D01*
X177361904Y-122947380D02*
X177314285Y-122995000D01*
X177361904Y-123042619D01*
X177409523Y-122995000D01*
X177361904Y-122947380D01*
X177361904Y-123042619D01*
X178266666Y-123899761D02*
X178171428Y-123947380D01*
X177980952Y-123947380D01*
X177885714Y-123899761D01*
X177838095Y-123852142D01*
X177790476Y-123756904D01*
X177790476Y-123471190D01*
X177838095Y-123375952D01*
X177885714Y-123328333D01*
X177980952Y-123280714D01*
X178171428Y-123280714D01*
X178266666Y-123328333D01*
X178647619Y-123899761D02*
X178742857Y-123947380D01*
X178933333Y-123947380D01*
X179028571Y-123899761D01*
X179076190Y-123804523D01*
X179076190Y-123756904D01*
X179028571Y-123661666D01*
X178933333Y-123614047D01*
X178790476Y-123614047D01*
X178695238Y-123566428D01*
X178647619Y-123471190D01*
X178647619Y-123423571D01*
X178695238Y-123328333D01*
X178790476Y-123280714D01*
X178933333Y-123280714D01*
X179028571Y-123328333D01*
X168147619Y-124557380D02*
X168814285Y-124557380D01*
X168147619Y-125557380D01*
X168814285Y-125557380D01*
X169671428Y-125557380D02*
X169195238Y-125557380D01*
X169195238Y-124557380D01*
X170004761Y-125557380D02*
X170004761Y-124890714D01*
X170004761Y-124557380D02*
X169957142Y-124605000D01*
X170004761Y-124652619D01*
X170052380Y-124605000D01*
X170004761Y-124557380D01*
X170004761Y-124652619D01*
X170909523Y-124890714D02*
X170909523Y-125700238D01*
X170861904Y-125795476D01*
X170814285Y-125843095D01*
X170719047Y-125890714D01*
X170576190Y-125890714D01*
X170480952Y-125843095D01*
X170909523Y-125509761D02*
X170814285Y-125557380D01*
X170623809Y-125557380D01*
X170528571Y-125509761D01*
X170480952Y-125462142D01*
X170433333Y-125366904D01*
X170433333Y-125081190D01*
X170480952Y-124985952D01*
X170528571Y-124938333D01*
X170623809Y-124890714D01*
X170814285Y-124890714D01*
X170909523Y-124938333D01*
X171385714Y-125557380D02*
X171385714Y-124557380D01*
X171814285Y-125557380D02*
X171814285Y-125033571D01*
X171766666Y-124938333D01*
X171671428Y-124890714D01*
X171528571Y-124890714D01*
X171433333Y-124938333D01*
X171385714Y-124985952D01*
X172147619Y-124890714D02*
X172528571Y-124890714D01*
X172290476Y-124557380D02*
X172290476Y-125414523D01*
X172338095Y-125509761D01*
X172433333Y-125557380D01*
X172528571Y-125557380D01*
X173480952Y-124557380D02*
X173814285Y-125557380D01*
X174147619Y-124557380D01*
X174433333Y-124652619D02*
X174480952Y-124605000D01*
X174576190Y-124557380D01*
X174814285Y-124557380D01*
X174909523Y-124605000D01*
X174957142Y-124652619D01*
X175004761Y-124747857D01*
X175004761Y-124843095D01*
X174957142Y-124985952D01*
X174385714Y-125557380D01*
X175004761Y-125557380D01*
X184438095Y-60200000D02*
X184342857Y-60152380D01*
X184200000Y-60152380D01*
X184057142Y-60200000D01*
X183961904Y-60295238D01*
X183914285Y-60390476D01*
X183866666Y-60580952D01*
X183866666Y-60723809D01*
X183914285Y-60914285D01*
X183961904Y-61009523D01*
X184057142Y-61104761D01*
X184200000Y-61152380D01*
X184295238Y-61152380D01*
X184438095Y-61104761D01*
X184485714Y-61057142D01*
X184485714Y-60723809D01*
X184295238Y-60723809D01*
X184914285Y-61152380D02*
X184914285Y-60152380D01*
X185485714Y-61152380D01*
X185485714Y-60152380D01*
X185961904Y-61152380D02*
X185961904Y-60152380D01*
X186200000Y-60152380D01*
X186342857Y-60200000D01*
X186438095Y-60295238D01*
X186485714Y-60390476D01*
X186533333Y-60580952D01*
X186533333Y-60723809D01*
X186485714Y-60914285D01*
X186438095Y-61009523D01*
X186342857Y-61104761D01*
X186200000Y-61152380D01*
X185961904Y-61152380D01*
D11*
X118435714Y-53478571D02*
X117935714Y-52764285D01*
X117578571Y-53478571D02*
X117578571Y-51978571D01*
X118150000Y-51978571D01*
X118292857Y-52050000D01*
X118364285Y-52121428D01*
X118435714Y-52264285D01*
X118435714Y-52478571D01*
X118364285Y-52621428D01*
X118292857Y-52692857D01*
X118150000Y-52764285D01*
X117578571Y-52764285D01*
X119078571Y-52692857D02*
X119578571Y-52692857D01*
X119792857Y-53478571D02*
X119078571Y-53478571D01*
X119078571Y-51978571D01*
X119792857Y-51978571D01*
X120435714Y-53478571D02*
X120435714Y-51978571D01*
X120792857Y-51978571D01*
X121007142Y-52050000D01*
X121150000Y-52192857D01*
X121221428Y-52335714D01*
X121292857Y-52621428D01*
X121292857Y-52835714D01*
X121221428Y-53121428D01*
X121150000Y-53264285D01*
X121007142Y-53407142D01*
X120792857Y-53478571D01*
X120435714Y-53478571D01*
X187942857Y-102578571D02*
X187085714Y-102578571D01*
X187514285Y-102578571D02*
X187514285Y-101078571D01*
X187371428Y-101292857D01*
X187228571Y-101435714D01*
X187085714Y-101507142D01*
X188514285Y-101221428D02*
X188585714Y-101150000D01*
X188728571Y-101078571D01*
X189085714Y-101078571D01*
X189228571Y-101150000D01*
X189300000Y-101221428D01*
X189371428Y-101364285D01*
X189371428Y-101507142D01*
X189300000Y-101721428D01*
X188442857Y-102578571D01*
X189371428Y-102578571D01*
X189871428Y-101578571D02*
X190228571Y-102578571D01*
X190585714Y-101578571D01*
D10*
X175823809Y-60152380D02*
X176442857Y-60152380D01*
X176109523Y-60533333D01*
X176252380Y-60533333D01*
X176347619Y-60580952D01*
X176395238Y-60628571D01*
X176442857Y-60723809D01*
X176442857Y-60961904D01*
X176395238Y-61057142D01*
X176347619Y-61104761D01*
X176252380Y-61152380D01*
X175966666Y-61152380D01*
X175871428Y-61104761D01*
X175823809Y-61057142D01*
X176871428Y-61057142D02*
X176919047Y-61104761D01*
X176871428Y-61152380D01*
X176823809Y-61104761D01*
X176871428Y-61057142D01*
X176871428Y-61152380D01*
X177252380Y-60152380D02*
X177871428Y-60152380D01*
X177538095Y-60533333D01*
X177680952Y-60533333D01*
X177776190Y-60580952D01*
X177823809Y-60628571D01*
X177871428Y-60723809D01*
X177871428Y-60961904D01*
X177823809Y-61057142D01*
X177776190Y-61104761D01*
X177680952Y-61152380D01*
X177395238Y-61152380D01*
X177300000Y-61104761D01*
X177252380Y-61057142D01*
X178157142Y-60152380D02*
X178490476Y-61152380D01*
X178823809Y-60152380D01*
X180100000Y-52852380D02*
X180100000Y-51852380D01*
X180480952Y-51852380D01*
X180576190Y-51900000D01*
X180623809Y-51947619D01*
X180671428Y-52042857D01*
X180671428Y-52185714D01*
X180623809Y-52280952D01*
X180576190Y-52328571D01*
X180480952Y-52376190D01*
X180100000Y-52376190D01*
X181100000Y-52852380D02*
X181100000Y-51852380D01*
X182147619Y-52852380D02*
X181814285Y-52376190D01*
X181576190Y-52852380D02*
X181576190Y-51852380D01*
X181957142Y-51852380D01*
X182052380Y-51900000D01*
X182100000Y-51947619D01*
X182147619Y-52042857D01*
X182147619Y-52185714D01*
X182100000Y-52280952D01*
X182052380Y-52328571D01*
X181957142Y-52376190D01*
X181576190Y-52376190D01*
D11*
X172000000Y-70950000D02*
X171857142Y-70878571D01*
X171642857Y-70878571D01*
X171428571Y-70950000D01*
X171285714Y-71092857D01*
X171214285Y-71235714D01*
X171142857Y-71521428D01*
X171142857Y-71735714D01*
X171214285Y-72021428D01*
X171285714Y-72164285D01*
X171428571Y-72307142D01*
X171642857Y-72378571D01*
X171785714Y-72378571D01*
X172000000Y-72307142D01*
X172071428Y-72235714D01*
X172071428Y-71735714D01*
X171785714Y-71735714D01*
X173571428Y-72378571D02*
X173071428Y-71664285D01*
X172714285Y-72378571D02*
X172714285Y-70878571D01*
X173285714Y-70878571D01*
X173428571Y-70950000D01*
X173500000Y-71021428D01*
X173571428Y-71164285D01*
X173571428Y-71378571D01*
X173500000Y-71521428D01*
X173428571Y-71592857D01*
X173285714Y-71664285D01*
X172714285Y-71664285D01*
X174214285Y-71592857D02*
X174714285Y-71592857D01*
X174928571Y-72378571D02*
X174214285Y-72378571D01*
X174214285Y-70878571D01*
X174928571Y-70878571D01*
X175571428Y-71592857D02*
X176071428Y-71592857D01*
X176285714Y-72378571D02*
X175571428Y-72378571D01*
X175571428Y-70878571D01*
X176285714Y-70878571D01*
X176928571Y-72378571D02*
X176928571Y-70878571D01*
X177785714Y-72378571D01*
X177785714Y-70878571D01*
X125621428Y-56478571D02*
X125121428Y-55764285D01*
X124764285Y-56478571D02*
X124764285Y-54978571D01*
X125335714Y-54978571D01*
X125478571Y-55050000D01*
X125550000Y-55121428D01*
X125621428Y-55264285D01*
X125621428Y-55478571D01*
X125550000Y-55621428D01*
X125478571Y-55692857D01*
X125335714Y-55764285D01*
X124764285Y-55764285D01*
X126264285Y-56478571D02*
X126264285Y-54978571D01*
X127764285Y-55050000D02*
X127621428Y-54978571D01*
X127407142Y-54978571D01*
X127192857Y-55050000D01*
X127050000Y-55192857D01*
X126978571Y-55335714D01*
X126907142Y-55621428D01*
X126907142Y-55835714D01*
X126978571Y-56121428D01*
X127050000Y-56264285D01*
X127192857Y-56407142D01*
X127407142Y-56478571D01*
X127550000Y-56478571D01*
X127764285Y-56407142D01*
X127835714Y-56335714D01*
X127835714Y-55835714D01*
X127550000Y-55835714D01*
X128478571Y-56478571D02*
X128478571Y-54978571D01*
X128478571Y-55692857D02*
X129335714Y-55692857D01*
X129335714Y-56478571D02*
X129335714Y-54978571D01*
X129835714Y-54978571D02*
X130692857Y-54978571D01*
X130264285Y-56478571D02*
X130264285Y-54978571D01*
X132835714Y-55692857D02*
X133050000Y-55764285D01*
X133121428Y-55835714D01*
X133192857Y-55978571D01*
X133192857Y-56192857D01*
X133121428Y-56335714D01*
X133050000Y-56407142D01*
X132907142Y-56478571D01*
X132335714Y-56478571D01*
X132335714Y-54978571D01*
X132835714Y-54978571D01*
X132978571Y-55050000D01*
X133050000Y-55121428D01*
X133121428Y-55264285D01*
X133121428Y-55407142D01*
X133050000Y-55550000D01*
X132978571Y-55621428D01*
X132835714Y-55692857D01*
X132335714Y-55692857D01*
X133621428Y-54978571D02*
X134478571Y-54978571D01*
X134050000Y-56478571D02*
X134050000Y-54978571D01*
X134978571Y-56478571D02*
X134978571Y-54978571D01*
X135835714Y-56478571D01*
X135835714Y-54978571D01*
D10*
X181204761Y-65480952D02*
X181252380Y-65338095D01*
X181252380Y-65100000D01*
X181204761Y-65004761D01*
X181157142Y-64957142D01*
X181061904Y-64909523D01*
X180966666Y-64909523D01*
X180871428Y-64957142D01*
X180823809Y-65004761D01*
X180776190Y-65100000D01*
X180728571Y-65290476D01*
X180680952Y-65385714D01*
X180633333Y-65433333D01*
X180538095Y-65480952D01*
X180442857Y-65480952D01*
X180347619Y-65433333D01*
X180300000Y-65385714D01*
X180252380Y-65290476D01*
X180252380Y-65052380D01*
X180300000Y-64909523D01*
X181252380Y-64480952D02*
X180252380Y-64480952D01*
X180300000Y-63480952D02*
X180252380Y-63576190D01*
X180252380Y-63719047D01*
X180300000Y-63861904D01*
X180395238Y-63957142D01*
X180490476Y-64004761D01*
X180680952Y-64052380D01*
X180823809Y-64052380D01*
X181014285Y-64004761D01*
X181109523Y-63957142D01*
X181204761Y-63861904D01*
X181252380Y-63719047D01*
X181252380Y-63623809D01*
X181204761Y-63480952D01*
X181157142Y-63433333D01*
X180823809Y-63433333D01*
X180823809Y-63623809D01*
X181252380Y-63004761D02*
X180252380Y-63004761D01*
X181252380Y-62433333D01*
X180252380Y-62433333D01*
X180966666Y-62004761D02*
X180966666Y-61528571D01*
X181252380Y-62100000D02*
X180252380Y-61766666D01*
X181252380Y-61433333D01*
X181252380Y-60623809D02*
X181252380Y-61100000D01*
X180252380Y-61100000D01*
D11*
X109571428Y-96078571D02*
X108714285Y-96078571D01*
X109142857Y-96078571D02*
X109142857Y-94578571D01*
X109000000Y-94792857D01*
X108857142Y-94935714D01*
X108714285Y-95007142D01*
X110142857Y-94721428D02*
X110214285Y-94650000D01*
X110357142Y-94578571D01*
X110714285Y-94578571D01*
X110857142Y-94650000D01*
X110928571Y-94721428D01*
X111000000Y-94864285D01*
X111000000Y-95007142D01*
X110928571Y-95221428D01*
X110071428Y-96078571D01*
X111000000Y-96078571D01*
X111428571Y-94578571D02*
X111928571Y-96078571D01*
X112428571Y-94578571D01*
D10*
X187738095Y-95200000D02*
X187642857Y-95152380D01*
X187500000Y-95152380D01*
X187357142Y-95200000D01*
X187261904Y-95295238D01*
X187214285Y-95390476D01*
X187166666Y-95580952D01*
X187166666Y-95723809D01*
X187214285Y-95914285D01*
X187261904Y-96009523D01*
X187357142Y-96104761D01*
X187500000Y-96152380D01*
X187595238Y-96152380D01*
X187738095Y-96104761D01*
X187785714Y-96057142D01*
X187785714Y-95723809D01*
X187595238Y-95723809D01*
X188214285Y-96152380D02*
X188214285Y-95152380D01*
X188785714Y-96152380D01*
X188785714Y-95152380D01*
X189261904Y-96152380D02*
X189261904Y-95152380D01*
X189500000Y-95152380D01*
X189642857Y-95200000D01*
X189738095Y-95295238D01*
X189785714Y-95390476D01*
X189833333Y-95580952D01*
X189833333Y-95723809D01*
X189785714Y-95914285D01*
X189738095Y-96009523D01*
X189642857Y-96104761D01*
X189500000Y-96152380D01*
X189261904Y-96152380D01*
X109738095Y-101300000D02*
X109642857Y-101252380D01*
X109500000Y-101252380D01*
X109357142Y-101300000D01*
X109261904Y-101395238D01*
X109214285Y-101490476D01*
X109166666Y-101680952D01*
X109166666Y-101823809D01*
X109214285Y-102014285D01*
X109261904Y-102109523D01*
X109357142Y-102204761D01*
X109500000Y-102252380D01*
X109595238Y-102252380D01*
X109738095Y-102204761D01*
X109785714Y-102157142D01*
X109785714Y-101823809D01*
X109595238Y-101823809D01*
X110214285Y-102252380D02*
X110214285Y-101252380D01*
X110785714Y-102252380D01*
X110785714Y-101252380D01*
X111261904Y-102252380D02*
X111261904Y-101252380D01*
X111500000Y-101252380D01*
X111642857Y-101300000D01*
X111738095Y-101395238D01*
X111785714Y-101490476D01*
X111833333Y-101680952D01*
X111833333Y-101823809D01*
X111785714Y-102014285D01*
X111738095Y-102109523D01*
X111642857Y-102204761D01*
X111500000Y-102252380D01*
X111261904Y-102252380D01*
D11*
X122978571Y-77507142D02*
X122978571Y-78221428D01*
X121478571Y-78221428D01*
X122192857Y-77007142D02*
X122192857Y-76507142D01*
X122978571Y-76292857D02*
X122978571Y-77007142D01*
X121478571Y-77007142D01*
X121478571Y-76292857D01*
X122192857Y-75150000D02*
X122192857Y-75650000D01*
X122978571Y-75650000D02*
X121478571Y-75650000D01*
X121478571Y-74935714D01*
X121478571Y-74578571D02*
X121478571Y-73721428D01*
X122978571Y-74150000D02*
X121478571Y-74150000D01*
X122192857Y-71578571D02*
X122264285Y-71364285D01*
X122335714Y-71292857D01*
X122478571Y-71221428D01*
X122692857Y-71221428D01*
X122835714Y-71292857D01*
X122907142Y-71364285D01*
X122978571Y-71507142D01*
X122978571Y-72078571D01*
X121478571Y-72078571D01*
X121478571Y-71578571D01*
X121550000Y-71435714D01*
X121621428Y-71364285D01*
X121764285Y-71292857D01*
X121907142Y-71292857D01*
X122050000Y-71364285D01*
X122121428Y-71435714D01*
X122192857Y-71578571D01*
X122192857Y-72078571D01*
X121478571Y-70792857D02*
X121478571Y-69935714D01*
X122978571Y-70364285D02*
X121478571Y-70364285D01*
X122978571Y-69435714D02*
X121478571Y-69435714D01*
X122978571Y-68578571D01*
X121478571Y-68578571D01*
D10*
%TO.C,J1*%
X103752380Y-103733333D02*
X104466666Y-103733333D01*
X104609523Y-103780952D01*
X104704761Y-103876190D01*
X104752380Y-104019047D01*
X104752380Y-104114285D01*
X104752380Y-102733333D02*
X104752380Y-103304761D01*
X104752380Y-103019047D02*
X103752380Y-103019047D01*
X103895238Y-103114285D01*
X103990476Y-103209523D01*
X104038095Y-103304761D01*
%TO.C,U3*%
X125988095Y-79952380D02*
X125988095Y-80761904D01*
X126035714Y-80857142D01*
X126083333Y-80904761D01*
X126178571Y-80952380D01*
X126369047Y-80952380D01*
X126464285Y-80904761D01*
X126511904Y-80857142D01*
X126559523Y-80761904D01*
X126559523Y-79952380D01*
X126940476Y-79952380D02*
X127559523Y-79952380D01*
X127226190Y-80333333D01*
X127369047Y-80333333D01*
X127464285Y-80380952D01*
X127511904Y-80428571D01*
X127559523Y-80523809D01*
X127559523Y-80761904D01*
X127511904Y-80857142D01*
X127464285Y-80904761D01*
X127369047Y-80952380D01*
X127083333Y-80952380D01*
X126988095Y-80904761D01*
X126940476Y-80857142D01*
%TO.C,DEBUG1*%
X138085714Y-75752380D02*
X138085714Y-74752380D01*
X138323809Y-74752380D01*
X138466666Y-74800000D01*
X138561904Y-74895238D01*
X138609523Y-74990476D01*
X138657142Y-75180952D01*
X138657142Y-75323809D01*
X138609523Y-75514285D01*
X138561904Y-75609523D01*
X138466666Y-75704761D01*
X138323809Y-75752380D01*
X138085714Y-75752380D01*
X139085714Y-75228571D02*
X139419047Y-75228571D01*
X139561904Y-75752380D02*
X139085714Y-75752380D01*
X139085714Y-74752380D01*
X139561904Y-74752380D01*
X140323809Y-75228571D02*
X140466666Y-75276190D01*
X140514285Y-75323809D01*
X140561904Y-75419047D01*
X140561904Y-75561904D01*
X140514285Y-75657142D01*
X140466666Y-75704761D01*
X140371428Y-75752380D01*
X139990476Y-75752380D01*
X139990476Y-74752380D01*
X140323809Y-74752380D01*
X140419047Y-74800000D01*
X140466666Y-74847619D01*
X140514285Y-74942857D01*
X140514285Y-75038095D01*
X140466666Y-75133333D01*
X140419047Y-75180952D01*
X140323809Y-75228571D01*
X139990476Y-75228571D01*
X140990476Y-74752380D02*
X140990476Y-75561904D01*
X141038095Y-75657142D01*
X141085714Y-75704761D01*
X141180952Y-75752380D01*
X141371428Y-75752380D01*
X141466666Y-75704761D01*
X141514285Y-75657142D01*
X141561904Y-75561904D01*
X141561904Y-74752380D01*
X142561904Y-74800000D02*
X142466666Y-74752380D01*
X142323809Y-74752380D01*
X142180952Y-74800000D01*
X142085714Y-74895238D01*
X142038095Y-74990476D01*
X141990476Y-75180952D01*
X141990476Y-75323809D01*
X142038095Y-75514285D01*
X142085714Y-75609523D01*
X142180952Y-75704761D01*
X142323809Y-75752380D01*
X142419047Y-75752380D01*
X142561904Y-75704761D01*
X142609523Y-75657142D01*
X142609523Y-75323809D01*
X142419047Y-75323809D01*
X143561904Y-75752380D02*
X142990476Y-75752380D01*
X143276190Y-75752380D02*
X143276190Y-74752380D01*
X143180952Y-74895238D01*
X143085714Y-74990476D01*
X142990476Y-75038095D01*
%TO.C,SW1*%
X125266666Y-73004761D02*
X125409523Y-73052380D01*
X125647619Y-73052380D01*
X125742857Y-73004761D01*
X125790476Y-72957142D01*
X125838095Y-72861904D01*
X125838095Y-72766666D01*
X125790476Y-72671428D01*
X125742857Y-72623809D01*
X125647619Y-72576190D01*
X125457142Y-72528571D01*
X125361904Y-72480952D01*
X125314285Y-72433333D01*
X125266666Y-72338095D01*
X125266666Y-72242857D01*
X125314285Y-72147619D01*
X125361904Y-72100000D01*
X125457142Y-72052380D01*
X125695238Y-72052380D01*
X125838095Y-72100000D01*
X126171428Y-72052380D02*
X126409523Y-73052380D01*
X126600000Y-72338095D01*
X126790476Y-73052380D01*
X127028571Y-72052380D01*
X127933333Y-73052380D02*
X127361904Y-73052380D01*
X127647619Y-73052380D02*
X127647619Y-72052380D01*
X127552380Y-72195238D01*
X127457142Y-72290476D01*
X127361904Y-72338095D01*
%TO.C,U2*%
X147438095Y-70072380D02*
X147438095Y-70881904D01*
X147485714Y-70977142D01*
X147533333Y-71024761D01*
X147628571Y-71072380D01*
X147819047Y-71072380D01*
X147914285Y-71024761D01*
X147961904Y-70977142D01*
X148009523Y-70881904D01*
X148009523Y-70072380D01*
X148438095Y-70167619D02*
X148485714Y-70120000D01*
X148580952Y-70072380D01*
X148819047Y-70072380D01*
X148914285Y-70120000D01*
X148961904Y-70167619D01*
X149009523Y-70262857D01*
X149009523Y-70358095D01*
X148961904Y-70500952D01*
X148390476Y-71072380D01*
X149009523Y-71072380D01*
%TO.C,R1*%
X150382380Y-110979166D02*
X149906190Y-111312500D01*
X150382380Y-111550595D02*
X149382380Y-111550595D01*
X149382380Y-111169642D01*
X149430000Y-111074404D01*
X149477619Y-111026785D01*
X149572857Y-110979166D01*
X149715714Y-110979166D01*
X149810952Y-111026785D01*
X149858571Y-111074404D01*
X149906190Y-111169642D01*
X149906190Y-111550595D01*
X150382380Y-110026785D02*
X150382380Y-110598214D01*
X150382380Y-110312500D02*
X149382380Y-110312500D01*
X149525238Y-110407738D01*
X149620476Y-110502976D01*
X149668095Y-110598214D01*
%TO.C,C1*%
X142370833Y-111057142D02*
X142323214Y-111104761D01*
X142180357Y-111152380D01*
X142085119Y-111152380D01*
X141942261Y-111104761D01*
X141847023Y-111009523D01*
X141799404Y-110914285D01*
X141751785Y-110723809D01*
X141751785Y-110580952D01*
X141799404Y-110390476D01*
X141847023Y-110295238D01*
X141942261Y-110200000D01*
X142085119Y-110152380D01*
X142180357Y-110152380D01*
X142323214Y-110200000D01*
X142370833Y-110247619D01*
X143323214Y-111152380D02*
X142751785Y-111152380D01*
X143037500Y-111152380D02*
X143037500Y-110152380D01*
X142942261Y-110295238D01*
X142847023Y-110390476D01*
X142751785Y-110438095D01*
%TO.C,C2*%
X117977142Y-86804166D02*
X118024761Y-86851785D01*
X118072380Y-86994642D01*
X118072380Y-87089880D01*
X118024761Y-87232738D01*
X117929523Y-87327976D01*
X117834285Y-87375595D01*
X117643809Y-87423214D01*
X117500952Y-87423214D01*
X117310476Y-87375595D01*
X117215238Y-87327976D01*
X117120000Y-87232738D01*
X117072380Y-87089880D01*
X117072380Y-86994642D01*
X117120000Y-86851785D01*
X117167619Y-86804166D01*
X117167619Y-86423214D02*
X117120000Y-86375595D01*
X117072380Y-86280357D01*
X117072380Y-86042261D01*
X117120000Y-85947023D01*
X117167619Y-85899404D01*
X117262857Y-85851785D01*
X117358095Y-85851785D01*
X117500952Y-85899404D01*
X118072380Y-86470833D01*
X118072380Y-85851785D01*
%TO.C,SW2*%
X128995238Y-58066666D02*
X128947619Y-58209523D01*
X128947619Y-58447619D01*
X128995238Y-58542857D01*
X129042857Y-58590476D01*
X129138095Y-58638095D01*
X129233333Y-58638095D01*
X129328571Y-58590476D01*
X129376190Y-58542857D01*
X129423809Y-58447619D01*
X129471428Y-58257142D01*
X129519047Y-58161904D01*
X129566666Y-58114285D01*
X129661904Y-58066666D01*
X129757142Y-58066666D01*
X129852380Y-58114285D01*
X129900000Y-58161904D01*
X129947619Y-58257142D01*
X129947619Y-58495238D01*
X129900000Y-58638095D01*
X129947619Y-58971428D02*
X128947619Y-59209523D01*
X129661904Y-59400000D01*
X128947619Y-59590476D01*
X129947619Y-59828571D01*
X129852380Y-60161904D02*
X129900000Y-60209523D01*
X129947619Y-60304761D01*
X129947619Y-60542857D01*
X129900000Y-60638095D01*
X129852380Y-60685714D01*
X129757142Y-60733333D01*
X129661904Y-60733333D01*
X129519047Y-60685714D01*
X128947619Y-60114285D01*
X128947619Y-60733333D01*
%TO.C,C4*%
X136927142Y-84304166D02*
X136974761Y-84351785D01*
X137022380Y-84494642D01*
X137022380Y-84589880D01*
X136974761Y-84732738D01*
X136879523Y-84827976D01*
X136784285Y-84875595D01*
X136593809Y-84923214D01*
X136450952Y-84923214D01*
X136260476Y-84875595D01*
X136165238Y-84827976D01*
X136070000Y-84732738D01*
X136022380Y-84589880D01*
X136022380Y-84494642D01*
X136070000Y-84351785D01*
X136117619Y-84304166D01*
X136355714Y-83447023D02*
X137022380Y-83447023D01*
X135974761Y-83685119D02*
X136689047Y-83923214D01*
X136689047Y-83304166D01*
%TO.C,R5*%
X129233333Y-54482380D02*
X128900000Y-54006190D01*
X128661904Y-54482380D02*
X128661904Y-53482380D01*
X129042857Y-53482380D01*
X129138095Y-53530000D01*
X129185714Y-53577619D01*
X129233333Y-53672857D01*
X129233333Y-53815714D01*
X129185714Y-53910952D01*
X129138095Y-53958571D01*
X129042857Y-54006190D01*
X128661904Y-54006190D01*
X130138095Y-53482380D02*
X129661904Y-53482380D01*
X129614285Y-53958571D01*
X129661904Y-53910952D01*
X129757142Y-53863333D01*
X129995238Y-53863333D01*
X130090476Y-53910952D01*
X130138095Y-53958571D01*
X130185714Y-54053809D01*
X130185714Y-54291904D01*
X130138095Y-54387142D01*
X130090476Y-54434761D01*
X129995238Y-54482380D01*
X129757142Y-54482380D01*
X129661904Y-54434761D01*
X129614285Y-54387142D01*
%TO.C,R4*%
X122133333Y-56522380D02*
X121800000Y-56046190D01*
X121561904Y-56522380D02*
X121561904Y-55522380D01*
X121942857Y-55522380D01*
X122038095Y-55570000D01*
X122085714Y-55617619D01*
X122133333Y-55712857D01*
X122133333Y-55855714D01*
X122085714Y-55950952D01*
X122038095Y-55998571D01*
X121942857Y-56046190D01*
X121561904Y-56046190D01*
X122990476Y-55855714D02*
X122990476Y-56522380D01*
X122752380Y-55474761D02*
X122514285Y-56189047D01*
X123133333Y-56189047D01*
%TO.C,R6*%
X163633333Y-70822380D02*
X163300000Y-70346190D01*
X163061904Y-70822380D02*
X163061904Y-69822380D01*
X163442857Y-69822380D01*
X163538095Y-69870000D01*
X163585714Y-69917619D01*
X163633333Y-70012857D01*
X163633333Y-70155714D01*
X163585714Y-70250952D01*
X163538095Y-70298571D01*
X163442857Y-70346190D01*
X163061904Y-70346190D01*
X164490476Y-69822380D02*
X164300000Y-69822380D01*
X164204761Y-69870000D01*
X164157142Y-69917619D01*
X164061904Y-70060476D01*
X164014285Y-70250952D01*
X164014285Y-70631904D01*
X164061904Y-70727142D01*
X164109523Y-70774761D01*
X164204761Y-70822380D01*
X164395238Y-70822380D01*
X164490476Y-70774761D01*
X164538095Y-70727142D01*
X164585714Y-70631904D01*
X164585714Y-70393809D01*
X164538095Y-70298571D01*
X164490476Y-70250952D01*
X164395238Y-70203333D01*
X164204761Y-70203333D01*
X164109523Y-70250952D01*
X164061904Y-70298571D01*
X164014285Y-70393809D01*
%TO.C,D21*%
X166985714Y-73682380D02*
X166985714Y-72682380D01*
X167223809Y-72682380D01*
X167366666Y-72730000D01*
X167461904Y-72825238D01*
X167509523Y-72920476D01*
X167557142Y-73110952D01*
X167557142Y-73253809D01*
X167509523Y-73444285D01*
X167461904Y-73539523D01*
X167366666Y-73634761D01*
X167223809Y-73682380D01*
X166985714Y-73682380D01*
X167938095Y-72777619D02*
X167985714Y-72730000D01*
X168080952Y-72682380D01*
X168319047Y-72682380D01*
X168414285Y-72730000D01*
X168461904Y-72777619D01*
X168509523Y-72872857D01*
X168509523Y-72968095D01*
X168461904Y-73110952D01*
X167890476Y-73682380D01*
X168509523Y-73682380D01*
X169461904Y-73682380D02*
X168890476Y-73682380D01*
X169176190Y-73682380D02*
X169176190Y-72682380D01*
X169080952Y-72825238D01*
X168985714Y-72920476D01*
X168890476Y-72968095D01*
%TO.C,R3*%
X131433333Y-72582380D02*
X131100000Y-72106190D01*
X130861904Y-72582380D02*
X130861904Y-71582380D01*
X131242857Y-71582380D01*
X131338095Y-71630000D01*
X131385714Y-71677619D01*
X131433333Y-71772857D01*
X131433333Y-71915714D01*
X131385714Y-72010952D01*
X131338095Y-72058571D01*
X131242857Y-72106190D01*
X130861904Y-72106190D01*
X131766666Y-71582380D02*
X132385714Y-71582380D01*
X132052380Y-71963333D01*
X132195238Y-71963333D01*
X132290476Y-72010952D01*
X132338095Y-72058571D01*
X132385714Y-72153809D01*
X132385714Y-72391904D01*
X132338095Y-72487142D01*
X132290476Y-72534761D01*
X132195238Y-72582380D01*
X131909523Y-72582380D01*
X131814285Y-72534761D01*
X131766666Y-72487142D01*
%TO.C,D20*%
X122385714Y-51622380D02*
X122385714Y-50622380D01*
X122623809Y-50622380D01*
X122766666Y-50670000D01*
X122861904Y-50765238D01*
X122909523Y-50860476D01*
X122957142Y-51050952D01*
X122957142Y-51193809D01*
X122909523Y-51384285D01*
X122861904Y-51479523D01*
X122766666Y-51574761D01*
X122623809Y-51622380D01*
X122385714Y-51622380D01*
X123338095Y-50717619D02*
X123385714Y-50670000D01*
X123480952Y-50622380D01*
X123719047Y-50622380D01*
X123814285Y-50670000D01*
X123861904Y-50717619D01*
X123909523Y-50812857D01*
X123909523Y-50908095D01*
X123861904Y-51050952D01*
X123290476Y-51622380D01*
X123909523Y-51622380D01*
X124528571Y-50622380D02*
X124623809Y-50622380D01*
X124719047Y-50670000D01*
X124766666Y-50717619D01*
X124814285Y-50812857D01*
X124861904Y-51003333D01*
X124861904Y-51241428D01*
X124814285Y-51431904D01*
X124766666Y-51527142D01*
X124719047Y-51574761D01*
X124623809Y-51622380D01*
X124528571Y-51622380D01*
X124433333Y-51574761D01*
X124385714Y-51527142D01*
X124338095Y-51431904D01*
X124290476Y-51241428D01*
X124290476Y-51003333D01*
X124338095Y-50812857D01*
X124385714Y-50717619D01*
X124433333Y-50670000D01*
X124528571Y-50622380D01*
%TO.C,D1*%
X139752380Y-119438095D02*
X138752380Y-119438095D01*
X138752380Y-119200000D01*
X138800000Y-119057142D01*
X138895238Y-118961904D01*
X138990476Y-118914285D01*
X139180952Y-118866666D01*
X139323809Y-118866666D01*
X139514285Y-118914285D01*
X139609523Y-118961904D01*
X139704761Y-119057142D01*
X139752380Y-119200000D01*
X139752380Y-119438095D01*
X139752380Y-117914285D02*
X139752380Y-118485714D01*
X139752380Y-118200000D02*
X138752380Y-118200000D01*
X138895238Y-118295238D01*
X138990476Y-118390476D01*
X139038095Y-118485714D01*
%TO.C,J2*%
X194596619Y-92866666D02*
X193882333Y-92866666D01*
X193739476Y-92819047D01*
X193644238Y-92723809D01*
X193596619Y-92580952D01*
X193596619Y-92485714D01*
X194501380Y-93295238D02*
X194549000Y-93342857D01*
X194596619Y-93438095D01*
X194596619Y-93676190D01*
X194549000Y-93771428D01*
X194501380Y-93819047D01*
X194406142Y-93866666D01*
X194310904Y-93866666D01*
X194168047Y-93819047D01*
X193596619Y-93247619D01*
X193596619Y-93866666D01*
%TO.C,U4*%
X173838095Y-56652380D02*
X173838095Y-57461904D01*
X173885714Y-57557142D01*
X173933333Y-57604761D01*
X174028571Y-57652380D01*
X174219047Y-57652380D01*
X174314285Y-57604761D01*
X174361904Y-57557142D01*
X174409523Y-57461904D01*
X174409523Y-56652380D01*
X175314285Y-56985714D02*
X175314285Y-57652380D01*
X175076190Y-56604761D02*
X174838095Y-57319047D01*
X175457142Y-57319047D01*
%TO.C,R2*%
X150382380Y-116779166D02*
X149906190Y-117112500D01*
X150382380Y-117350595D02*
X149382380Y-117350595D01*
X149382380Y-116969642D01*
X149430000Y-116874404D01*
X149477619Y-116826785D01*
X149572857Y-116779166D01*
X149715714Y-116779166D01*
X149810952Y-116826785D01*
X149858571Y-116874404D01*
X149906190Y-116969642D01*
X149906190Y-117350595D01*
X149477619Y-116398214D02*
X149430000Y-116350595D01*
X149382380Y-116255357D01*
X149382380Y-116017261D01*
X149430000Y-115922023D01*
X149477619Y-115874404D01*
X149572857Y-115826785D01*
X149668095Y-115826785D01*
X149810952Y-115874404D01*
X150382380Y-116445833D01*
X150382380Y-115826785D01*
%TO.C,R7*%
X155720833Y-84682380D02*
X155387500Y-84206190D01*
X155149404Y-84682380D02*
X155149404Y-83682380D01*
X155530357Y-83682380D01*
X155625595Y-83730000D01*
X155673214Y-83777619D01*
X155720833Y-83872857D01*
X155720833Y-84015714D01*
X155673214Y-84110952D01*
X155625595Y-84158571D01*
X155530357Y-84206190D01*
X155149404Y-84206190D01*
X156054166Y-83682380D02*
X156720833Y-83682380D01*
X156292261Y-84682380D01*
%TO.C,U1*%
X140002380Y-120661904D02*
X140811904Y-120661904D01*
X140907142Y-120614285D01*
X140954761Y-120566666D01*
X141002380Y-120471428D01*
X141002380Y-120280952D01*
X140954761Y-120185714D01*
X140907142Y-120138095D01*
X140811904Y-120090476D01*
X140002380Y-120090476D01*
X141002380Y-119090476D02*
X141002380Y-119661904D01*
X141002380Y-119376190D02*
X140002380Y-119376190D01*
X140145238Y-119471428D01*
X140240476Y-119566666D01*
X140288095Y-119661904D01*
%TO.C,C3*%
X132927142Y-84366666D02*
X132974761Y-84414285D01*
X133022380Y-84557142D01*
X133022380Y-84652380D01*
X132974761Y-84795238D01*
X132879523Y-84890476D01*
X132784285Y-84938095D01*
X132593809Y-84985714D01*
X132450952Y-84985714D01*
X132260476Y-84938095D01*
X132165238Y-84890476D01*
X132070000Y-84795238D01*
X132022380Y-84652380D01*
X132022380Y-84557142D01*
X132070000Y-84414285D01*
X132117619Y-84366666D01*
X132022380Y-84033333D02*
X132022380Y-83414285D01*
X132403333Y-83747619D01*
X132403333Y-83604761D01*
X132450952Y-83509523D01*
X132498571Y-83461904D01*
X132593809Y-83414285D01*
X132831904Y-83414285D01*
X132927142Y-83461904D01*
X132974761Y-83509523D01*
X133022380Y-83604761D01*
X133022380Y-83890476D01*
X132974761Y-83985714D01*
X132927142Y-84033333D01*
%TO.C,L1*%
X133133333Y-131252380D02*
X132657142Y-131252380D01*
X132657142Y-130252380D01*
X133990476Y-131252380D02*
X133419047Y-131252380D01*
X133704761Y-131252380D02*
X133704761Y-130252380D01*
X133609523Y-130395238D01*
X133514285Y-130490476D01*
X133419047Y-130538095D01*
D12*
%TO.C,J1*%
X103949000Y-100480000D02*
X103949000Y-96980000D01*
X103949000Y-96980000D02*
X100249000Y-96980000D01*
X100249000Y-100480000D02*
X103949000Y-100480000D01*
X107249000Y-102430000D02*
X100249000Y-102430000D01*
X100249000Y-102430000D02*
X100249000Y-95030000D01*
X100249000Y-95030000D02*
X107249000Y-95030000D01*
X107249000Y-95030000D02*
X107249000Y-102430000D01*
%TO.C,U3*%
X128660000Y-81590000D02*
X128660000Y-82850000D01*
X124900000Y-88410000D02*
X128660000Y-88410000D01*
X122650000Y-81590000D02*
X128660000Y-81590000D01*
X128660000Y-88410000D02*
X128660000Y-87150000D01*
%TO.C,DEBUG1*%
X147450000Y-80100000D02*
X148850000Y-80100000D01*
X148850000Y-80100000D02*
X148850000Y-79500000D01*
X148850000Y-79500000D02*
X147450000Y-79500000D01*
X147450000Y-79500000D02*
X147450000Y-80100000D01*
X144550000Y-80100000D02*
X159450000Y-80100000D01*
X159450000Y-80100000D02*
X159450000Y-74100000D01*
X159450000Y-74100000D02*
X144550000Y-74100000D01*
X144550000Y-74100000D02*
X144550000Y-80100000D01*
X155450000Y-80100000D02*
X156650000Y-80100000D01*
X156650000Y-80100000D02*
X156650000Y-79500000D01*
X156650000Y-79500000D02*
X155450000Y-79500000D01*
X155450000Y-79500000D02*
X155450000Y-80100000D01*
%TO.C,SW1*%
X124100000Y-70600000D02*
X129100000Y-70600000D01*
X129100000Y-70600000D02*
X129100000Y-75600000D01*
X129100000Y-75600000D02*
X124100000Y-75600000D01*
X124100000Y-75600000D02*
X124100000Y-70600000D01*
%TO.C,U2*%
X140300000Y-39320000D02*
X160500000Y-39320000D01*
X160500000Y-39320000D02*
X160500000Y-69320000D01*
X160500000Y-69320000D02*
X140300000Y-69320000D01*
X140300000Y-69320000D02*
X140300000Y-39320000D01*
%TO.C,R1*%
X147977500Y-110557776D02*
X147977500Y-111067224D01*
X149022500Y-110557776D02*
X149022500Y-111067224D01*
%TO.C,C1*%
X141826248Y-111640000D02*
X143248752Y-111640000D01*
X141826248Y-114360000D02*
X143248752Y-114360000D01*
%TO.C,C2*%
X119560000Y-86783767D02*
X119560000Y-86491233D01*
X118540000Y-86783767D02*
X118540000Y-86491233D01*
%TO.C,SW2*%
X127400000Y-61900000D02*
X132400000Y-61900000D01*
X132400000Y-61900000D02*
X132400000Y-56900000D01*
X132400000Y-56900000D02*
X127400000Y-56900000D01*
X127400000Y-56900000D02*
X127400000Y-61900000D01*
%TO.C,C4*%
X137490000Y-84283767D02*
X137490000Y-83991233D01*
X138510000Y-84283767D02*
X138510000Y-83991233D01*
%TO.C,R5*%
X129654724Y-53122500D02*
X129145276Y-53122500D01*
X129654724Y-52077500D02*
X129145276Y-52077500D01*
%TO.C,R4*%
X122045276Y-58022500D02*
X122554724Y-58022500D01*
X122045276Y-56977500D02*
X122554724Y-56977500D01*
%TO.C,R6*%
X163545276Y-71277500D02*
X164054724Y-71277500D01*
X163545276Y-72322500D02*
X164054724Y-72322500D01*
%TO.C,D21*%
X167400000Y-72535000D02*
X169860000Y-72535000D01*
X169860000Y-72535000D02*
X169860000Y-71065000D01*
X169860000Y-71065000D02*
X167400000Y-71065000D01*
%TO.C,R3*%
X131854724Y-70177500D02*
X131345276Y-70177500D01*
X131854724Y-71222500D02*
X131345276Y-71222500D01*
%TO.C,D20*%
X121940000Y-51865000D02*
X121940000Y-53335000D01*
X124400000Y-51865000D02*
X121940000Y-51865000D01*
X121940000Y-53335000D02*
X124400000Y-53335000D01*
%TO.C,D1*%
X137200000Y-115400000D02*
X133200000Y-115400000D01*
X133200000Y-115400000D02*
X133200000Y-123600000D01*
X133200000Y-123600000D02*
X137200000Y-123600000D01*
X137200000Y-123600000D02*
X137200000Y-115400000D01*
X133200000Y-117600000D02*
X137200000Y-117600000D01*
X137200000Y-117600000D02*
X137200000Y-117100000D01*
X137200000Y-117100000D02*
X133200000Y-117100000D01*
X133200000Y-117100000D02*
X133200000Y-117600000D01*
G36*
X133200000Y-117600000D02*
G01*
X137200000Y-117600000D01*
X137200000Y-117100000D01*
X133200000Y-117100000D01*
X133200000Y-117600000D01*
G37*
%TO.C,J2*%
X199800000Y-97020000D02*
X196100000Y-97020000D01*
X196100000Y-100520000D02*
X199800000Y-100520000D01*
X196100000Y-97020000D02*
X196100000Y-100520000D01*
X192800000Y-95070000D02*
X199800000Y-95070000D01*
X199800000Y-95070000D02*
X199800000Y-102470000D01*
X199800000Y-102470000D02*
X192800000Y-102470000D01*
X192800000Y-102470000D02*
X192800000Y-95070000D01*
%TO.C,U4*%
X182550000Y-59900000D02*
X184050000Y-59900000D01*
X184050000Y-59900000D02*
X184050000Y-59300000D01*
X184050000Y-59300000D02*
X182550000Y-59300000D01*
X182550000Y-59300000D02*
X182550000Y-59900000D01*
X178300000Y-59900000D02*
X179700000Y-59900000D01*
X179700000Y-59900000D02*
X179700000Y-59300000D01*
X179700000Y-59300000D02*
X178300000Y-59300000D01*
X178300000Y-59300000D02*
X178300000Y-59900000D01*
X176000000Y-59900000D02*
X186100000Y-59900000D01*
X186100000Y-59900000D02*
X186100000Y-53900000D01*
X186100000Y-53900000D02*
X176000000Y-53900000D01*
X176000000Y-53900000D02*
X176000000Y-59900000D01*
%TO.C,R2*%
X149022500Y-116357776D02*
X149022500Y-116867224D01*
X147977500Y-116357776D02*
X147977500Y-116867224D01*
%TO.C,R7*%
X156142224Y-83322500D02*
X155632776Y-83322500D01*
X156142224Y-82277500D02*
X155632776Y-82277500D01*
%TO.C,U1*%
X146410000Y-121260000D02*
X146080000Y-121260000D01*
X146410000Y-118540000D02*
X146410000Y-121260000D01*
X141690000Y-121260000D02*
X142020000Y-121260000D01*
X142020000Y-123440000D02*
X142020000Y-121260000D01*
X141690000Y-118540000D02*
X142020000Y-118540000D01*
X146080000Y-118540000D02*
X146410000Y-118540000D01*
X141690000Y-121260000D02*
X141690000Y-118540000D01*
%TO.C,C3*%
X133490000Y-84346267D02*
X133490000Y-84053733D01*
X134510000Y-84346267D02*
X134510000Y-84053733D01*
%TO.C,L1*%
X127200000Y-125200000D02*
X139400000Y-125200000D01*
X139400000Y-125200000D02*
X139400000Y-137400000D01*
X139400000Y-137400000D02*
X127200000Y-137400000D01*
X127200000Y-137400000D02*
X127200000Y-125200000D01*
%TD*%
M02*
